# xmcd
#
# Track frame offsets:
#	150
#	7391
#	24253
#	36667
#	50397
#	67273
#	90613
#	104181
#	121805
#	136237
#	153212
#	167432
#	188240
#	208907
#
# Disc length: 3036 seconds
#
# Revision: 1
# Processed by: cddbd v1.5.2PL0 Copyright (c) Steve Scherf et al.
# Submitted via: audiograbber 1.83.01
#
DISCID=c80bda0e
DTITLE=Mary Ann Kennedy - Hoofbeats, Heartbreaks and Wings
DYEAR=2005
DGENRE=Country
TTITLE0=Hoofbeats, Heartbreaks and Wings
TTITLE1=Born To Ride
TTITLE2=Green On Green
TTITLE3=Hayin Time
TTITLE4=When You Carry Me
TTITLE5=My Home
TTITLE6=Horsin Around
TTITLE7=Cleanin Stalls
TTITLE8=Fireflies
TTITLE9=Palomino
TTITLE10=Jack Russell
TTITLE11=Crow
TTITLE12=Horses In Heaven
TTITLE13=Spirit Horse
EXTD=
EXTT0=
EXTT1=
EXTT2=
EXTT3=
EXTT4=
EXTT5=
EXTT6=
EXTT7=
EXTT8=
EXTT9=
EXTT10=
EXTT11=
EXTT12=
EXTT13=
PLAYORDER=
